<svg xmlns="http://www.w3.org/2000/svg" xmlns:xlink="http://www.w3.org/1999/xlink" width="288" height="282.7" viewBox="0 0 288 282.7">
  <defs>
    <style>
      .cls-1 {
        fill: #4d4d4d;
      }

      .cls-2 {
        fill: url(#linear-gradient);
      }

      .cls-3 {
        fill: #fff;
      }
    </style>
    <linearGradient id="linear-gradient" x1="134.73" y1="276.54" x2="149.16" y2="3.92" gradientUnits="userSpaceOnUse">
      <stop offset="0" stop-color="#005b8e"/>
      <stop offset="0.45" stop-color="#005d90"/>
      <stop offset="0.61" stop-color="#006397"/>
      <stop offset="0.72" stop-color="#006da2"/>
      <stop offset="0.82" stop-color="#007cb3"/>
      <stop offset="0.9" stop-color="#008fc9"/>
      <stop offset="0.97" stop-color="#00a7e4"/>
      <stop offset="1" stop-color="#00b5f4"/>
    </linearGradient>
  </defs>
  <g id="Layer_2" data-name="Layer 2">
    <g id="Layer_1-2" data-name="Layer 1">
      <g id="Electric_Cherry" data-name="Electric Cherry">
        <polygon class="cls-1" points="0 0 288 0 288 198.3 144.5 282.7 0 200.4 0 0"/>
        <polygon class="cls-2" points="7.5 7.4 280.5 7.4 280.5 195.4 144.5 275.4 7.5 197.4 7.5 7.4"/>
        <path id="Stem" class="cls-3" d="M264.5,38.4c-34.8,18.9-66,39.5-83,65l-5,1,1-13-31,35c-7.8.1-14.4-4.9-19-15,20.5-32.3,37.6-58.7,63-70,1,0,9,1,8,3-1.9,3.7-8,14.7-11,18l68-26Z"/>
        <path id="Cherry" class="cls-3" d="M170.2,120.8l-2.7-.3c-4.7-.5-9.2,1.7-13.3,4-1.9,1.2-4,2.6-4.6,4.8s.7,5.2,2.6,7.1a17.7,17.7,0,0,0,8.6,4.9c2.1.5,4.4.7,6.4,1.4s4.1,2.3,4.5,4.5a1,1,0,0,1-.1.9,1.2,1.2,0,0,1-.9.5c-7.9,1.8-16.1-1.3-22.7-5.9s-12-10.8-17.9-16.2c-3.7-3.4-7.6-6.5-11.5-9.6a19.9,19.9,0,0,0-5.7-3.5,19.4,19.4,0,0,0-7.2-.6l-8.3.4a8,8,0,0,1-3.4-.4,2.5,2.5,0,0,1-1.6-2.7,4,4,0,0,1,1.4-1.8c3.9-3,9.1-3.8,14.1-3.8s9.9.9,14.8.9c1.8,0,4.2-.7,4.2-2.5s-.9-1.9-1.6-2.6a74.9,74.9,0,0,1-7.4-7.5L116.3,91c-21.5-6.5-46.2.2-60.8,19.4-31,41-10,95,34,115s90-17,98.7-60a37.1,37.1,0,0,0,.4-6.7C189.3,143.4,181,130.6,170.2,120.8ZM73.3,173.2a4.2,4.2,0,0,1-3.8,1.8,2,2,0,0,1-1.8-.5l-.3-.8a18.3,18.3,0,0,1-.2-3.3,4.4,4.4,0,0,1,.2-1.6c.6-3.1,3.7-3.3,6-2a18,18,0,0,1,.3,4A6.4,6.4,0,0,1,73.3,173.2Zm12-50.8a19.4,19.4,0,0,1-1.5,2.4c-5.8,8.5-5.7,19.7-10.1,28.9a3.5,3.5,0,0,1-1.8,2.1c-1.4.5-2.8-.8-3.4-2.2a15.4,15.4,0,0,1-.7-5.7V135.6a35.4,35.4,0,0,1,.2-4.6,22.2,22.2,0,0,1,3.7-10.8,17,17,0,0,1,6.9-5.8c1.2-.5,2.3-1.2,3.5-.8a6.8,6.8,0,0,1,3.2,3.3A7,7,0,0,1,85.3,122.4Z"/>
      </g>
    </g>
  </g>
</svg>
