<svg xmlns="http://www.w3.org/2000/svg" xmlns:xlink="http://www.w3.org/1999/xlink" width="288" height="282.7" viewBox="0 0 288 282.7">
  <defs>
    <style>
      .cls-1 {
        fill: #4d4d4d;
      }

      .cls-2 {
        fill: url(#linear-gradient);
      }

      .cls-3 {
        fill: #fff;
      }

      .cls-4 {
        fill: #f7f7f7;
      }
    </style>
    <linearGradient id="linear-gradient" x1="119.55" y1="269.58" x2="158.83" y2="-0.58" gradientUnits="userSpaceOnUse">
      <stop offset="0" stop-color="#490c0b"/>
      <stop offset="0.44" stop-color="#4b0c0b"/>
      <stop offset="0.6" stop-color="#520e0c"/>
      <stop offset="0.71" stop-color="#5d100e"/>
      <stop offset="0.8" stop-color="#6e1411"/>
      <stop offset="0.88" stop-color="#841915"/>
      <stop offset="0.95" stop-color="#9f1e1a"/>
      <stop offset="1" stop-color="#b9241e"/>
    </linearGradient>
  </defs>
  <g id="Layer_2" data-name="Layer 2">
    <g id="Layer_1-2" data-name="Layer 1">
      <g id="Juggernog">
        <polygon class="cls-1" points="0 0 288 0 288 198.3 144.5 282.7 0 200.4 0 0"/>
        <polygon class="cls-2" points="7.5 7.4 280.5 7.4 280.5 195.4 144.5 275.4 7.5 197.4 7.5 7.4"/>
        <g id="Health">
          <path class="cls-3" d="M178.4,99.4h-.1l-2.2,1.9.8.7a14,14,0,0,1,1.3,19.7l-61.7,70.5v34.1h56V155.9h58V99.4Z"/>
          <path class="cls-4" d="M163.8,83.7a131,131,0,0,1,8.7-11.8V29.4h-56v70h-58v56.5H89.4l55.4-63.3a14.2,14.2,0,0,1,10.6-4.7,14.5,14.5,0,0,1,5.4,1.1C161.9,86.8,163.1,84.9,163.8,83.7Z"/>
        </g>
        <g id="Bullet">
          <path class="cls-3" d="M178.2,100.6l-2.1-1.8a6.9,6.9,0,0,1-1.1,1.3l-1.8,1.5,2.4,2a12.1,12.1,0,0,1,1.1,16.9l-85,97a11.9,11.9,0,0,1-9,4.1,12.4,12.4,0,0,1-7.9-2.9L62.5,207.9a12,12,0,0,1-1.1-17l84.9-97a12.4,12.4,0,0,1,9.1-4,11.9,11.9,0,0,1,7.9,2.9l6.1,5.4,1.1-.8a10.7,10.7,0,0,0,1.9-1.8h0l-6.5-5.7a15.8,15.8,0,0,0-10.5-4,16.1,16.1,0,0,0-12,5.4l-85,97a16,16,0,0,0,1.5,22.5l12.3,10.8a15.6,15.6,0,0,0,10.5,4,15.8,15.8,0,0,0,12-5.5l85-97A16,16,0,0,0,178.2,100.6Z"/>
          <path class="cls-3" d="M225.1,30.4a5.1,5.1,0,0,0-4.6-3c-1.3,0-5.1,0-16.7,9a165,165,0,0,0-22.1,20.7c-7,8-14.9,17.2-20,25.3a46.2,46.2,0,0,0-2.4,4,15.7,15.7,0,0,1,4.6,2c4.6-8.3,13.4-18.6,21.6-28,14.2-16.3,31-28,35-28,1,0-7.8,24.7-22,41-7.2,8.3-14.5,17.3-20.8,23.3h-.2l-.8,1.3-.6.7,2.1,1.8,1.2,1.3.6-.5c5.1-4.7,10.6-11.1,16.4-17.9,1.9-2.3,3.9-4.6,5.9-6.8,7.8-8.9,13.6-19.7,17.2-27.1,1.7-3.8,3.3-7.6,4.5-10.8C225.7,34,226,32.3,225.1,30.4Z"/>
          <path class="cls-3" d="M90.9,175.9l-2.4-2.1a1,1,0,0,1-.2-1.4l70.2-83a1,1,0,0,1,1.4-.1l2.6,1.1c.4.4.4.6,0,1L92.3,175.7A1,1,0,0,1,90.9,175.9Z"/>
        </g>
      </g>
    </g>
  </g>
</svg>
