<svg xmlns="http://www.w3.org/2000/svg" xmlns:xlink="http://www.w3.org/1999/xlink" width="288" height="282.7" viewBox="0 0 288 282.7">
  <defs>
    <style>
      .cls-1 {
        isolation: isolate;
      }

      .cls-2 {
        fill: #4d4d4d;
      }

      .cls-3 {
        fill: url(#linear-gradient);
      }

      .cls-4, .cls-5 {
        fill: #fff;
      }

      .cls-5, .cls-6 {
        mix-blend-mode: soft-light;
      }
    </style>
    <linearGradient id="linear-gradient" x1="119.55" y1="269.58" x2="158.83" y2="-0.58" gradientUnits="userSpaceOnUse">
      <stop offset="0" stop-color="#1c3a10"/>
      <stop offset="0.45" stop-color="#1d3c11"/>
      <stop offset="0.61" stop-color="#204313"/>
      <stop offset="0.73" stop-color="#264e17"/>
      <stop offset="0.82" stop-color="#2e5f1c"/>
      <stop offset="0.9" stop-color="#387524"/>
      <stop offset="0.97" stop-color="#45902c"/>
      <stop offset="1" stop-color="#4c9e31"/>
    </linearGradient>
  </defs>
  <g class="cls-1">
    <g id="Layer_2" data-name="Layer 2">
      <g id="Layer_1-2" data-name="Layer 1">
        <g id="Mule_Kick" data-name="Mule Kick">
          <polygon class="cls-2" points="0 0 288 0 288 198.3 144.5 282.7 0 200.4 0 0"/>
          <polygon class="cls-3" points="7.5 7.4 280.5 7.4 280.5 195.4 144.5 275.4 7.5 197.4 7.5 7.4"/>
          <path id="Gun_1" data-name="Gun 1" class="cls-4" d="M128.5,101.5a10.9,10.9,0,0,0,10.9,10.9h32.2a11,11,0,0,0,7.6-3l21.3,64,49-10L219.6,93.9c.9-4.9,2.9-12.5,8-12.5h11.9l1,2.7h2c.1-2.7-.1-5-1-6.7h-16a11,11,0,0,1-6-8l.2-11a5.8,5.8,0,0,1,2.8-3c2-1,4.9-1.1,8-2a17.6,17.6,0,0,1,3-1l1-3a15,15,0,0,0-3,1l-1.9,1h-7.1l-7-7.1V41.4h-7.3v-5l-5.8,5H45.5v5h-6v17h6v21h83.2a12.3,12.3,0,0,0-.2,1.9Zm12-17.1h20a12.8,12.8,0,0,1,6,10.5c0,7.5-7.2,13.5-16,13.5s-16-6-16-13.5A12.8,12.8,0,0,1,140.5,84.4Z"/>
          <path id="Gun_2" data-name="Gun 2" class="cls-5" d="M163.7,136.4l19.8,62,48.1-9.4c.8-3.3.1-5.8-2.2-7.2L196,187.4l-2.6.4-.8-2.5-20.8-65.4H149.9c-.6,7.3-7.7,13-16.4,13s-16.5-6.3-16.5-14a12.5,12.5,0,0,1,3.8-8.9A22.2,22.2,0,0,1,117,97.5V91.9H34v-21H23v16h6v21h83v17.6a10.4,10.4,0,0,0,10.4,10.4h32.2a9.8,9.8,0,0,0,4.8-1.2l3.1-1.6Z"/>
          <g id="Gun_3" data-name="Gun 3" class="cls-6">
            <path class="cls-4" d="M183.2,214.2l-3.7-10.8-20.2-58.7a14.9,14.9,0,0,1-4.7.7h-13a9.7,9.7,0,0,1,.9,5c-1,5.5-7.2,8-16,8s-12.6-.9-15-8a8.2,8.2,0,0,1,1.7-7.9,15.8,15.8,0,0,1-6.7-13V117.4h-83v-21h-2v5h-6v17h6v21h83.2a22,22,0,0,0-1.2,7c0,5,5,19,14,19h29c2.9,0,6.7.9,8.7-1,7.1,24.7,15.3,55.8,19.3,63,38.5-6.1,41.9-7.1,51-9,.2-5.2-1-7-3-9Z"/>
          </g>
        </g>
      </g>
    </g>
  </g>
</svg>
