<svg xmlns="http://www.w3.org/2000/svg" xmlns:xlink="http://www.w3.org/1999/xlink" width="288" height="282.7" viewBox="0 0 288 282.7">
  <defs>
    <style>
      .cls-1 {
        fill: #4d4d4d;
      }

      .cls-2 {
        fill: url(#linear-gradient);
      }

      .cls-3 {
        fill: #fff;
      }
    </style>
    <linearGradient id="linear-gradient" x1="93.53" y1="255.18" x2="178.67" y2="-4.21" gradientUnits="userSpaceOnUse">
      <stop offset="0" stop-color="#2b0438"/>
      <stop offset="0.33" stop-color="#2d043a"/>
      <stop offset="0.51" stop-color="#320542"/>
      <stop offset="0.65" stop-color="#3c0650"/>
      <stop offset="0.77" stop-color="#490763"/>
      <stop offset="0.88" stop-color="#5b097c"/>
      <stop offset="0.98" stop-color="#700b9a"/>
      <stop offset="1" stop-color="#740ba0"/>
    </linearGradient>
  </defs>
  <g id="Layer_2" data-name="Layer 2">
    <g id="Layer_1-2" data-name="Layer 1">
      <g id="PHD_Flopper" data-name="PHD Flopper">
        <polygon class="cls-1" points="0 0 288 0 288 198.3 144.5 282.7 0 200.4 0 0"/>
        <polygon class="cls-2" points="7.5 7.4 280.5 7.4 280.5 195.4 144.5 275.4 7.5 197.4 7.5 7.4"/>
        <g id="Nuclear">
          <circle class="cls-3" cx="143.5" cy="123.4" r="12"/>
          <path class="cls-3" d="M133.3,99.4c-.1-.5,3.2-3,9.2-3s6.6,1.1,9.5,3a7.5,7.5,0,0,0,5.8-2.9,138.8,138.8,0,0,0,18.7-32.7c1.3-3.2.2-7.2-2.9-8.7-21.2-9.8-41.7-9.6-61.5-.1-3.3,1.6-4.4,5.9-2.9,9.2a214.3,214.3,0,0,0,18.1,32A7.2,7.2,0,0,0,133.3,99.4Z"/>
          <path class="cls-3" d="M171.4,128.2a17.4,17.4,0,0,1-1.9,8.2c-2,5-7,8-7.2,8.1-1.8,1.9-1.2,4.4-.3,6.5a136.2,136.2,0,0,0,19.5,32.3c2.2,2.6,6.1,3.6,9,1.7,17.9-12.3,27.1-30.5,30-53.7.5-3.7-2.9-6.7-6.6-7.1a215.4,215.4,0,0,0-36.7.3A7.4,7.4,0,0,0,171.4,128.2Z"/>
          <path class="cls-3" d="M128.4,144.7c-3.9-3.3-5.7-4-7.9-7.3s-1-7-1.9-8.6a7.3,7.3,0,0,0-5.5-3.4,134.6,134.6,0,0,0-37.6,1.3c-3.4.6-6.3,3.6-5.9,7,2.2,20.2,13.4,37.3,32.2,52.4,2.9,2.3,7.3.7,9.4-2.4a220.6,220.6,0,0,0,17.7-32.2A7.7,7.7,0,0,0,128.4,144.7Z"/>
        </g>
        <g id="Shockwave">
          <g>
            <path class="cls-3" d="M24.6,142.7A107,107,0,0,1,22.7,123C22.7,79.3,51,41.6,92,24l-4.7-9.6A131.5,131.5,0,0,0,51.1,37.6C25.9,60.4,12,90.7,12,123a113.5,113.5,0,0,0,2,21.1Z"/>
            <path class="cls-3" d="M43.2,140.1A88.5,88.5,0,0,1,41.5,123c0-36.8,23.7-68.5,58.1-83.5l-3.9-8.1A111.7,111.7,0,0,0,65.5,50.9c-21.3,19.2-33,44.8-33,72.1a93.1,93.1,0,0,0,1.8,18.3Z"/>
          </g>
          <g>
            <g>
              <path class="cls-3" d="M265.3,123a100.5,100.5,0,0,1-1.5,17.4l10.6,1.4A117.3,117.3,0,0,0,276,123c0-32.3-13.9-62.6-39.1-85.4A131.7,131.7,0,0,0,205,16.3l-6.1,8.9C238.3,43.3,265.3,80.3,265.3,123Z"/>
              <path class="cls-3" d="M212.4,213.5a132,132,0,0,1-139.8-1.9l-4,10.1c21.9,14,48,21.5,75.4,21.5a140.5,140.5,0,0,0,72.5-19.7Z"/>
            </g>
            <g>
              <path class="cls-3" d="M246.5,123a92.9,92.9,0,0,1-1.3,15l8.9,1.1a94.5,94.5,0,0,0,1.4-16.1c0-27.3-11.7-52.9-33-72.1a109.2,109.2,0,0,0-28.4-18.7l-5.2,7.6C223,54.8,246.5,86.4,246.5,123Z"/>
              <path class="cls-3" d="M205.7,196.9a111.2,111.2,0,0,1-126.5-2.1l-3.4,8.6a120.3,120.3,0,0,0,133.4,2Z"/>
            </g>
          </g>
        </g>
      </g>
    </g>
  </g>
</svg>
