<svg xmlns="http://www.w3.org/2000/svg" xmlns:xlink="http://www.w3.org/1999/xlink" width="288" height="282.7" viewBox="0 0 288 282.7">
  <defs>
    <style>
      .cls-1 {
        fill: #4d4d4d;
      }

      .cls-2 {
        fill: url(#linear-gradient);
      }

      .cls-3 {
        fill: #fff;
      }
    </style>
    <linearGradient id="linear-gradient" x1="93.53" y1="255.18" x2="178.67" y2="-4.21" gradientUnits="userSpaceOnUse">
      <stop offset="0" stop-color="#014510"/>
      <stop offset="0.31" stop-color="#014711"/>
      <stop offset="0.47" stop-color="#024f14"/>
      <stop offset="0.6" stop-color="#035d19"/>
      <stop offset="0.71" stop-color="#057021"/>
      <stop offset="0.82" stop-color="#07892b"/>
      <stop offset="0.91" stop-color="#0aa837"/>
      <stop offset="0.99" stop-color="#0dcb46"/>
      <stop offset="1" stop-color="#0dcf47"/>
    </linearGradient>
  </defs>
  <g id="Layer_2" data-name="Layer 2">
    <g id="Layer_1-2" data-name="Layer 1">
      <g id="Speed_Cola" data-name="Speed Cola">
        <polygon class="cls-1" points="0 0 288 0 288 198.3 144.5 282.7 0 200.4 0 0"/>
        <polygon class="cls-2" points="7.5 7.4 280.5 7.4 280.5 195.4 144.5 275.4 7.5 197.4 7.5 7.4"/>
        <path id="Palm" class="cls-3" d="M237.3,86.3l-1.5-1.8a7.2,7.2,0,0,0-9.2-1.5c-14.2,8.6-27.7,27.8-33.9,53.4a3.4,3.4,0,0,1-2,2,8.1,8.1,0,0,1-3.1.2c-2.7-2.2-4.9-5.5-7.6-9.8l-.8-2.4-.5.5-66.2,70.5,49.5,56,50.5-33h0l1-62.9h0c.3-4.2,2.2-10.2,2.9-14.6,3.3-19.4,10.8-36.4,20.6-48.4A6.8,6.8,0,0,0,237.3,86.3Zm-23.8,69.1h0Z"/>
        <g id="Fingers">
          <path class="cls-3" d="M66.9,150.4l12.6-13.6a5.2,5.2,0,0,0-1.1-1L57.1,118.7a8.9,8.9,0,0,0-12.8,1.7,9.7,9.7,0,0,0,1.6,13.2Z"/>
          <path class="cls-3" d="M90.9,125.4l12.6-13L64.8,72.1A9.1,9.1,0,0,0,52,71.8h0a8.9,8.9,0,0,0-.3,12.7Z"/>
          <path class="cls-3" d="M114.5,100.4l13-13.4L96.7,34.3A9,9,0,0,0,84.4,31a8.9,8.9,0,0,0-3.3,12.2Z"/>
          <path class="cls-3" d="M138.6,76.4l14.9-12.9-7.1-37.4c-1.1-5.1-5.9-8.3-10.6-7.2h-.2a9.4,9.4,0,0,0-6.7,11.2Z"/>
        </g>
        <path id="Mag" class="cls-3" d="M178.3,48.1,62.8,168.4l-9.3,2,41,38,2.1-7.6L212.1,80.5ZM71.6,170,178,59.3a3.6,3.6,0,0,1,5-.1l2.3,2.2a3.6,3.6,0,0,1,.1,5L78.9,177.1a3.6,3.6,0,0,1-4.9.1l-2.3-2.3A3.4,3.4,0,0,1,71.6,170Zm21.6,20.8a3.5,3.5,0,0,1-4.9.1l-2.4-2.2a3.7,3.7,0,0,1-.1-5L192.3,73a3.6,3.6,0,0,1,4.9-.1l2.4,2.3a3.5,3.5,0,0,1,.1,4.9Z"/>
      </g>
    </g>
  </g>
</svg>
