<svg xmlns="http://www.w3.org/2000/svg" xmlns:xlink="http://www.w3.org/1999/xlink" width="288" height="282.7" viewBox="0 0 288 282.7">
  <defs>
    <style>
      .cls-1 {
        fill: #4d4d4d;
      }

      .cls-2 {
        fill: url(#linear-gradient);
      }

      .cls-3 {
        fill: #fff;
      }
    </style>
    <linearGradient id="linear-gradient" x1="103.1" y1="264.89" x2="168.66" y2="1.69" gradientUnits="userSpaceOnUse">
      <stop offset="0" stop-color="#722f12"/>
      <stop offset="1" stop-color="#e8681f"/>
    </linearGradient>
  </defs>
  <g id="Layer_2" data-name="Layer 2">
    <g id="Layer_1-2" data-name="Layer 1">
      <g id="Stamin-Up">
        <polygon class="cls-1" points="0 0 288 0 288 198.3 144.5 282.7 0 200.4 0 0"/>
        <polygon class="cls-2" points="7.5 7.4 280.5 7.4 280.5 194 144.5 273.4 7.5 196 7.5 7.4"/>
        <g id="Body">
          <circle id="Head" class="cls-3" cx="200.5" cy="43.4" r="20"/>
          <path id="Torso" class="cls-3" d="M129.3,28.2c23.1,10.9,44.8,25.7,65.6,42.9a2.3,2.3,0,0,1,.5,3l-26.2,42.2a2.3,2.3,0,0,1-2,1.1H120.6a2.3,2.3,0,0,1-1.9-3.6c10.4-17,22.2-34.3,34.1-45.9a2.3,2.3,0,0,0,.1-3.3,51.5,51.5,0,0,0-20-12.7,2,2,0,0,0-2.4.6l-18,18.9c-5.9,5.9-12.8.1-10.1-8.7l.3-.6,23.7-33.2A2.3,2.3,0,0,1,129.3,28.2Z"/>
          <path id="Left_Arm" data-name="Left Arm" class="cls-3" d="M197.5,76.4c4.5,5.5,8.1,12.3,13,15a73,73,0,0,0,21-18c6.3.4,9.1,3.6,9,9-6.9,10.7-18.4,20.1-32,29-8.7-2.7-15.9-9.6-22-18Z"/>
        </g>
        <path id="Spin" class="cls-3" d="M206.7,128.7a21.5,21.5,0,0,0-14-8.3,33.9,33.9,0,0,0-8.2-.6,56.3,56.3,0,0,0-10.7,1.3,111.6,111.6,0,0,0-13,3.8c-1.1.5-5.8,2.3-9.3,4a96,96,0,0,0-12.1,6.8c-3.3,2.2-8.8,6.1-11.4,8.1s-7.8,6.9-10.5,9.4a101.3,101.3,0,0,0-9.7,10c-2.2,2.7-5.5,6.1-6.9,8.6s-3.6,6.2-4.3,8.6-1.8,6-.6,9.7a8.7,8.7,0,0,0,3.6,4.5,14.2,14.2,0,0,0,4.5,1.6l2.6.3,3.8-.2,1.8-.3a42.1,42.1,0,0,0,5.1-1.2,39.1,39.1,0,0,0,6.9-2.7,81,81,0,0,0,11.7-6.5c2.8-2.2,6.3-4.5,9.6-7.6a84.1,84.1,0,0,0,8.9-9.5,47.9,47.9,0,0,0,5.7-9.2c1.6-3.6,2-5.1,2.2-7s1-3.7-2.9-4.9c-2-1-8.2.5-9.1.9-2.8,1.1-4.6,1.4-9,3.9a81.5,81.5,0,0,0-10.4,6.9l-4.8,4.3a50.7,50.7,0,0,0-7,8c-.4.6-1.7-1.4-1.9-1.8-1-2.3.6-4.4,2.2-6.1L122,161c2.2-2.2,4.3-4.1,5.7-5.3a148.8,148.8,0,0,1,11.9-9.8c3.6-2.6,8.2-6,12-7.8s6.6-2.7,12.6-3.7c8.2-1.2,11.8,2.5,11.8,2.5a13.3,13.3,0,0,1,2.5,11.5,34.4,34.4,0,0,1-6,12c-3,3.5-8.4,9.3-11.9,12.8l-3.2,3.3a150,150,0,0,1-13.6,11.7l-4.6,3.3a65.2,65.2,0,0,1-15.7,8.2l-1,.3a109,109,0,0,1-16,3.9c-4.1.5-9.5.9-14-.7a12.5,12.5,0,0,1-4.4-2.7,12,12,0,0,1-3.2-6.9v-2.2c.3-3.5-.1-4.2,3.3-12.8a54.1,54.1,0,0,1,6.7-11.8l7-9.2a116.1,116.1,0,0,1,12.4-12.9l11.4-9.7c3.7-3.3,12.6-9,14-9.9a91.9,91.9,0,0,0-9.1,3.6,141.1,141.1,0,0,0-12.5,6.8c-36.7,22.4-58.6,55-47.2,73.7,2.2,3.6,5.8,6.4,11.7,8.2s15,1.2,15,1.2c5.8.1,17.9-3.7,20.7-4.7,6.9-2.5,9.1-3.7,16.1-7,3.5-1.7,6.7-3.7,12.2-7,2.9-1.8,7-4.7,10.3-7.2a108.4,108.4,0,0,0,10.7-8.7c2.3-2.1,3.1-3.1,4.4-4.1s1.6.4,1.6,1.5a11.3,11.3,0,0,1-1.5,4.5c-.8,1.3-2.4,3.6-3.5,5a41.1,41.1,0,0,0-4,5.5c-1.5,2.7-1.3,4.8-.8,4.4,4.5-2.8,5.2-3.3,8.8-5.9a78.3,78.3,0,0,0,6.5-5.1C205.1,167.3,216.5,141.5,206.7,128.7Z"/>
      </g>
    </g>
  </g>
</svg>
