<svg xmlns="http://www.w3.org/2000/svg" xmlns:xlink="http://www.w3.org/1999/xlink" width="288" height="282.7" viewBox="0 0 288 282.7">
  <defs>
    <style>
      .cls-1 {
        fill: #4d0100;
      }

      .cls-2 {
        fill: url(#linear-gradient);
      }

      .cls-3 {
        fill: #ac0200;
      }
    </style>
    <linearGradient id="linear-gradient" x1="119.55" y1="269.58" x2="158.83" y2="-0.58" gradientUnits="userSpaceOnUse">
      <stop offset="0" stop-color="#111614"/>
      <stop offset="0.45" stop-color="#131816"/>
      <stop offset="0.62" stop-color="#1a1e1d"/>
      <stop offset="0.73" stop-color="#252a28"/>
      <stop offset="0.83" stop-color="#363a39"/>
      <stop offset="0.91" stop-color="#4c4f4f"/>
      <stop offset="0.98" stop-color="#676969"/>
      <stop offset="1" stop-color="#707272"/>
    </linearGradient>
  </defs>
  <g id="Layer_2" data-name="Layer 2">
    <g id="Layer_1-2" data-name="Layer 1">
      <g id="Widow_s_Wine" data-name="Widow&apos;s Wine">
        <polygon class="cls-1" points="0 0 288 0 288 198.3 144.5 282.7 0 200.4 0 0"/>
        <polygon class="cls-2" points="7.5 7.4 280.5 7.4 280.5 195.4 144.5 275.4 7.5 197.4 7.5 7.4"/>
        <path class="cls-3" d="M203.5,98.4c1,0,20-2,22-2s12,1,14,1,15,2,16,2,11,4,12,5,13,6,13,6v-8l-9-3-11-4a154.6,154.6,0,0,0-15-4c-5-1-9-2-14-2s-13,0-17,1-14,3-17,3-10,2-11,3l-.6,1h0l-8.4-2s4.4-9,4.2-9,.8-12,.8-12,1-10,1-11,2.4-7.6,2.4-7.6,4.6-5.4,4.6-6.4,2-4,2-4a43.3,43.3,0,0,1-1-5c0-1-4-6-4-6l-2-8s-1-4-2-5-4-6-3.5-6-1.5-8-1.5-8h-6.4s.4,6,1.4,7,4,10,4,10v23c0,1-1,6-1,7s-1,9-1,9,0,9-1,11-2,8-2.4,9.3-2.6,7.7-2.6,8.7-4,5-5,5-4-2-4-2a22.7,22.7,0,0,1-1-4c0-1,3.2-2,3.2-2s.8-6,.8-7v-12c0-1,.6-8.3.8-10.6s-.8-9.4-.8-10.4-1-11-1-11-3-7-4-8-4-7-5-8-4-6-5-7-4-5-4-6a3.8,3.8,0,0,0-.8-2h-8.3s9.1,14,9.1,15,3,5,4,6a21.9,21.9,0,0,1,3,5,35.1,35.1,0,0,1,2,7.2c0,.8-.1,7.5,0,9.2V62.4c0,2-.1,15.9,0,15.5s-2,7.5-2,7.5l-1,3-3-9-3-9-8-6s-6.2-2.8-7.1-2.9a50.1,50.1,0,0,0-5.9.9l5,2,8,7v6a43.3,43.3,0,0,1-5,1c-1,0-3,2-3,2s4,3,4,4-1,5-2,6-3,3-5,3-7-1-8-2-1-3-2-3-3,3-4,4-6,0-6,0-2-4-2-5-5-9-5-9-4,6-3,9,5,9,6,10,7,2,9,3,5.8,1.8,5.4,2.9.6,5.1.6,5.1l.7.5a44.1,44.1,0,0,1-6.4,1.5c-1.3,0-13.6-.9-15.5-1.5s-11.8-2.5-13.8-2.5-14-4-15-5-12-7-13-7-13-5-14-6a146.3,146.3,0,0,0-13-9c-2-1-11-8-11-8l-8-8v9s6,5,7,6,8,7,9,8,7,6,8,7,8,8,10,9,8,6,12,7,10,5,10,5a77.5,77.5,0,0,1,9-1c3,0,17,4,19,4s11,1,14,1,9,1,10,1,6,1,7,1l3,4s-8,3-10,3-13,1-13,1-15,1-17,1-12-1-14-1-16.6-3-19.8-4-20.2-7-22.2-8-15-8-16-9-6-2-6-2v10s8.1,5,8.6,5,7.4,3,9.4,4,10,5,13,6,8,4,11,4,10,2,12,3,7,3,9,3,18-2,20-2,11-3,13-3,10.1-2,13.6-3,12.4-5,12.4-5,1,3,3,3,2,3,2,4-8,7-8,8-4,5-4,5-3,10-3,11-4,11-4,11l-3,9-1,7,1,11s3,8,3,9,5,14,5,14l6,14,4,7s5,9,7,11,5.3,9.3,6,10a109.7,109.7,0,0,1,8,10l5-3-8-13s-7-10-7-11-6-12-6-13-6-15-6-15l-2-11-2-22v-9l4-16,5-5,4,5,1,11-1,17.1v7.9l9,14,7,10,8,10,10,11,13,12,10-6-16-12-11-14-10-16-1-10,2.6-2.4h0a77.9,77.9,0,0,0,17,13.2c29.7,17.1,64.7,12,78.2-11.4s.4-56.3-29.3-73.4l-3.5-1.9h12.3c1.7-.1,14.7,4.9,17.7,6.9l28,18v-10s-14-9-16-10-8-7-13-9-27-7-31-7-12-1-15-1l-2.1.3C203.2,103.8,202.7,98.4,203.5,98.4Zm7,88c-2,0-12-2-15-2s-5-3-5-3-7-9-8-10l-7-7c-1-1-7-4-8-4s-3-2-4-5c0,0,1-6,0-7.6s-5-12.4-5-12.4,9,3,10,3,6,4,7,5,7,5,7,6,2,10,2,10l6,6c1,1,12,2,13,2s8,6,8,6c4,3,12,13,13,14S212.5,186.4,210.5,186.4Zm16-48a61.3,61.3,0,0,1,4,6l-2,42c-3.1-1.3-4.6-4-7-7,0,0-3-9-3-10s-5-10-5-11-5-2-5-2h-9l-1-10s-5.9-5-6.4-6-11.6-4-13.6-4-8-1.5-9-1.8-11-6.2-11-6.2h19.1s22.9-3,23.9-3h10.2l3.8,13S225.5,137.4,226.5,138.4Z"/>
      </g>
    </g>
  </g>
</svg>
